<?xml version="1.0" encoding="UTF-8" standalone="no"?>
<svg
   xmlns:dc="http://purl.org/dc/elements/1.1/"
   xmlns:cc="http://creativecommons.org/ns#"
   xmlns:rdf="http://www.w3.org/1999/02/22-rdf-syntax-ns#"
   xmlns:svg="http://www.w3.org/2000/svg"
   xmlns="http://www.w3.org/2000/svg"
   xmlns:sodipodi="http://sodipodi.sourceforge.net/DTD/sodipodi-0.dtd"
   xmlns:inkscape="http://www.inkscape.org/namespaces/inkscape"
   viewBox="0 0 200 200"
   version="1.1"
   sodipodi:docname="kde.svg"
   inkscape:version="0.92.5 (6c0c36ef5a, 2020-05-15, custom)"
   height="200"
   width="200"
   id="svg4379">
  <metadata
     id="metadata10">
    <rdf:RDF>
      <cc:Work
         rdf:about="">
        <dc:format>image/svg+xml</dc:format>
        <dc:type
           rdf:resource="http://purl.org/dc/dcmitype/StillImage" />
      </cc:Work>
    </rdf:RDF>
  </metadata>
  <defs
     id="defs8">
    <style
       type="text/css"
       id="current-color-scheme">
      .ColorScheme-Text {
        color:#31363b;
      }
      </style>
  </defs>
  <sodipodi:namedview
     inkscape:document-rotation="0"
     inkscape:snap-bbox-edge-midpoints="true"
     inkscape:bbox-nodes="true"
     inkscape:snap-bbox="true"
     showgrid="true"
     pagecolor="#dfe2e4"
     objecttolerance="10"
     inkscape:zoom="1.9975"
     inkscape:window-y="36"
     inkscape:window-x="0"
     inkscape:window-width="1920"
     inkscape:window-maximized="1"
     inkscape:window-height="949"
     inkscape:pageshadow="2"
     inkscape:pageopacity="0"
     inkscape:cy="110.86326"
     inkscape:cx="35.001982"
     inkscape:current-layer="svg4379"
     guidetolerance="10"
     gridtolerance="10"
     borderopacity="1"
     bordercolor="#666666"
     id="namedview39">
    <inkscape:grid
       type="xygrid"
       id="grid839" />
  </sodipodi:namedview>
  <path
     style="color:#31363b;fill:#ffffff;fill-opacity:1;stroke-width:11.36366081"
     d="m 118.40385,38.326998 c 4.31162,-5.368193 7.23503,-12.661395 6.42844,-20.053453 -6.21001,0.260433 -13.94776,4.313418 -18.42958,9.525361 -3.95956,4.624216 -7.476965,12.182981 -6.565945,19.306861 6.969005,0.520125 14.106865,-3.52637 18.567085,-8.777971 z m 15.71256,46.443271 c -0.14717,-15.807982 12.93523,-23.484121 13.5273,-23.85003 -7.40217,-10.803558 -18.87959,-12.267082 -22.9262,-12.401174 -9.6457,-0.982831 -18.983,5.795467 -23.90346,5.795467 -5.007728,-6.92e-4 -12.570488,-5.678193 -20.714815,-5.516717 -10.498549,0.15702 -20.329592,6.235924 -25.711405,15.650039 -11.079931,19.239809 -2.820019,47.498966 7.821938,63.013766 5.330914,7.63719 11.540923,16.13754 19.685265,15.80232 7.966159,-0.30289 10.935928,-5.05795 20.564817,-5.05795 9.52753,0 12.31819,5.05795 20.63074,4.89521 8.55432,-0.13991 13.93409,-7.65093 19.0807,-15.31935 6.12899,-8.74831 8.60378,-17.32505 8.70254,-17.78185 -0.19115,-0.0709 -16.58073,-6.30423 -16.75686,-25.229601 z"
     id="path19"
     inkscape:connector-curvature="0" />
</svg>
